<?xml version="1.0" encoding="UTF-8" standalone="no"?>
<!-- Created with Inkscape (http://www.inkscape.org/) -->

<svg
   xmlns:dc="http://purl.org/dc/elements/1.1/"
   xmlns:cc="http://creativecommons.org/ns#"
   xmlns:rdf="http://www.w3.org/1999/02/22-rdf-syntax-ns#"
   xmlns:svg="http://www.w3.org/2000/svg"
   xmlns="http://www.w3.org/2000/svg"
   xmlns:sodipodi="http://sodipodi.sourceforge.net/DTD/sodipodi-0.dtd"
   xmlns:inkscape="http://www.inkscape.org/namespaces/inkscape"
   id="svg2"
   version="1.1"
   inkscape:version="0.91 r13725"
   xml:space="preserve"
   width="423.40714"
   height="106.9625"
   viewBox="0 0 423.40714 106.9625"
   sodipodi:docname="UX Process.svg"><title
     id="title4479">UX Process</title><metadata
     id="metadata8"><rdf:RDF><cc:Work
         rdf:about=""><dc:format>image/svg+xml</dc:format><dc:type
           rdf:resource="http://purl.org/dc/dcmitype/StillImage" /><dc:title>UX Process</dc:title><cc:license
           rdf:resource="http://creativecommons.org/licenses/by/3.0/" /><dc:creator><cc:Agent><dc:title>snater.com </dc:title></cc:Agent></dc:creator></cc:Work><cc:License
         rdf:about="http://creativecommons.org/licenses/by/3.0/"><cc:permits
           rdf:resource="http://creativecommons.org/ns#Reproduction" /><cc:permits
           rdf:resource="http://creativecommons.org/ns#Distribution" /><cc:requires
           rdf:resource="http://creativecommons.org/ns#Notice" /><cc:requires
           rdf:resource="http://creativecommons.org/ns#Attribution" /><cc:permits
           rdf:resource="http://creativecommons.org/ns#DerivativeWorks" /></cc:License></rdf:RDF></metadata><defs
     id="defs6"><clipPath
       clipPathUnits="userSpaceOnUse"
       id="clipPath64"><path
         d="m 0,103.333 400,0 L 400,0 0,0 0,103.333 Z"
         id="path66"
         inkscape:connector-curvature="0" /></clipPath><clipPath
       clipPathUnits="userSpaceOnUse"
       id="clipPath72"><path
         d="m 10.146,39.8408 368.894,0 0,-15.0078 -368.894,0 0,15.0078 z"
         id="path74"
         inkscape:connector-curvature="0" /></clipPath><clipPath
       clipPathUnits="userSpaceOnUse"
       id="clipPath76"><path
         d="m 10.646,39.3408 367.448,0 0,-14.0078 -367.448,0 0,14.0078 z"
         id="path78"
         inkscape:connector-curvature="0" /></clipPath><clipPath
       clipPathUnits="userSpaceOnUse"
       id="clipPath80"><path
         d="m 10.146,39.8408 368.894,0 0,-15.0078 -368.894,0 0,15.0078 z"
         id="path82"
         inkscape:connector-curvature="0" /></clipPath><clipPath
       clipPathUnits="userSpaceOnUse"
       id="clipPath116"><path
         d="m 0,103.333 400,0 L 400,0 0,0 0,103.333 Z"
         id="path118"
         inkscape:connector-curvature="0" /></clipPath><clipPath
       clipPathUnits="userSpaceOnUse"
       id="clipPath156"><path
         d="m 0,103.333 400,0 L 400,0 0,0 0,103.333 Z"
         id="path158"
         inkscape:connector-curvature="0" /></clipPath><clipPath
       clipPathUnits="userSpaceOnUse"
       id="clipPath390"><path
         d="m 0,103.333 400,0 L 400,0 0,0 0,103.333 Z"
         id="path392"
         inkscape:connector-curvature="0" /></clipPath></defs><sodipodi:namedview
     pagecolor="#ffffff"
     bordercolor="#666666"
     borderopacity="1"
     objecttolerance="10"
     gridtolerance="10"
     guidetolerance="10"
     inkscape:pageopacity="0"
     inkscape:pageshadow="2"
     inkscape:window-width="1920"
     inkscape:window-height="1056"
     id="namedview4"
     showgrid="false"
     showguides="true"
     inkscape:guide-bbox="true"
     inkscape:zoom="5.6568543"
     inkscape:cx="61.717895"
     inkscape:cy="9.3605926"
     inkscape:window-x="0"
     inkscape:window-y="24"
     inkscape:window-maximized="1"
     inkscape:current-layer="g10"
     fit-margin-top="10"
     fit-margin-left="10"
     fit-margin-right="10"
     fit-margin-bottom="10"><sodipodi:guide
       position="67.710741,15.213856"
       orientation="0,1"
       id="guide4761" /><sodipodi:guide
       position="249.91247,22.49134"
       orientation="0,1"
       id="guide5005" /></sodipodi:namedview><g
     id="g10"
     inkscape:groupmode="layer"
     inkscape:label="UX Process"
     transform="matrix(1.25,0,0,-1.25,-2.682375,128.00375)"><g
       id="g20"
       transform="translate(308.8955,25.333)"><path
         d="m 0,0 -59.65,0 0,68.57 L 0,68.57 23.371,34.285 0,0 Z"
         style="fill:#e6e6e7;fill-opacity:1;fill-rule:nonzero;stroke:none"
         id="path22"
         inkscape:connector-curvature="0" /></g><g
       id="g24"
       transform="translate(308.8955,25.333)"><path
         d="m 0,0 -59.65,0 0,68.57 L 0,68.57 23.371,34.285 0,0 Z"
         style="fill:none;stroke:#a5a5a5;stroke-width:1;stroke-linecap:butt;stroke-linejoin:miter;stroke-miterlimit:10;stroke-dasharray:none;stroke-opacity:1"
         id="path26"
         inkscape:connector-curvature="0" /></g><g
       id="g28"
       transform="translate(249.21908,25.333)"><path
         d="m 0,0 -59.65,0 0,68.57 L 0,68.57 23.371,34.285 0,0 Z"
         style="fill:#e6e6e7;fill-opacity:1;fill-rule:nonzero;stroke:none"
         id="path30"
         inkscape:connector-curvature="0" /></g><g
       id="g32"
       transform="translate(249.2456,25.333)"><path
         d="m 0,0 -59.65,0 0,68.57 L 0,68.57 23.371,34.285 0,0 Z"
         style="fill:none;stroke:#a5a5a5;stroke-width:1;stroke-linecap:butt;stroke-linejoin:miter;stroke-miterlimit:10;stroke-dasharray:none;stroke-opacity:1"
         id="path34"
         inkscape:connector-curvature="0" /></g><g
       id="g36"
       transform="translate(189.5952,25.333)"><path
         d="m 0,0 -59.65,0 0,68.57 L 0,68.57 23.371,34.285 0,0 Z"
         style="fill:#e6e6e7;fill-opacity:1;fill-rule:nonzero;stroke:none"
         id="path38"
         inkscape:connector-curvature="0" /></g><g
       id="g40"
       transform="translate(189.5952,25.333)"><path
         d="m 0,0 -59.65,0 0,68.57 L 0,68.57 23.371,34.285 0,0 Z"
         style="fill:none;stroke:#a5a5a5;stroke-width:1;stroke-linecap:butt;stroke-linejoin:miter;stroke-miterlimit:10;stroke-dasharray:none;stroke-opacity:1"
         id="path42"
         inkscape:connector-curvature="0" /></g><g
       id="g44"
       transform="translate(129.9453,25.333)"><path
         d="m 0,0 -59.65,0 0,68.57 L 0,68.57 23.371,34.285 0,0 Z"
         style="fill:#e6e6e7;fill-opacity:1;fill-rule:nonzero;stroke:none"
         id="path46"
         inkscape:connector-curvature="0" /></g><g
       id="g48"
       transform="translate(129.9453,25.333)"><path
         d="m 0,0 -59.65,0 0,68.57 L 0,68.57 23.371,34.285 0,0 Z"
         style="fill:none;stroke:#a5a5a5;stroke-width:1;stroke-linecap:butt;stroke-linejoin:miter;stroke-miterlimit:10;stroke-dasharray:none;stroke-opacity:1"
         id="path50"
         inkscape:connector-curvature="0" /></g><g
       id="g52"
       transform="translate(70.2959,25.333)"><path
         d="m 0,0 -59.65,0 0,68.57 L 0,68.57 23.371,34.285 0,0 Z"
         style="fill:#e6e6e7;fill-opacity:1;fill-rule:nonzero;stroke:none"
         id="path54"
         inkscape:connector-curvature="0" /></g><g
       id="g56"
       transform="translate(70.2959,25.333)"><path
         d="m 0,0 -59.65,0 0,68.57 L 0,68.57 23.371,34.285 0,0 Z"
         style="fill:none;stroke:#a5a5a5;stroke-width:1;stroke-linecap:butt;stroke-linejoin:miter;stroke-miterlimit:10;stroke-dasharray:none;stroke-opacity:1"
         id="path58"
         inkscape:connector-curvature="0" /></g><g
       id="g60"><g
         id="g62"
         clip-path="url(#clipPath64)"><g
           id="g68"><g
             id="g70" /><g
             id="g84"><g
               clip-path="url(#clipPath72)"
               id="g86"
               style="opacity:0.5"><g
                 id="g88"><g
                   id="g90" /><g
                   id="g92"><g
                     clip-path="url(#clipPath76)"
                     id="g94"
                     style="opacity:0.99000501"><g
                       transform="translate(378.0937,39.3408)"
                       id="g96"><path
                         d="m -59.2,0 -308.248,0 0,-14.008 298.7,0 z"
                         style="fill:#a5a5a5;fill-opacity:1;fill-rule:nonzero;stroke:none"
                         id="path98"
                         inkscape:connector-curvature="0"
                         sodipodi:nodetypes="ccccc" /></g></g></g></g><g
                 id="g100"><g
                   id="g102" /><g
                   id="g104"><g
                     clip-path="url(#clipPath80)"
                     id="g106"
                     style="opacity:0.19999701"><g
                       transform="translate(378.0937,39.3408)"
                       id="g108"><path
                         d="m -60.8,0 -306.648,0 0,-14.008 297.1,0 z"
                         style="fill:none;stroke:#a5a5a5;stroke-width:1;stroke-linecap:butt;stroke-linejoin:miter;stroke-miterlimit:10;stroke-dasharray:none;stroke-opacity:1"
                         id="path110"
                         inkscape:connector-curvature="0"
                         sodipodi:nodetypes="ccccc" /></g></g></g></g></g></g></g></g></g><g
       id="g112"><g
         id="g114"
         clip-path="url(#clipPath116)"><g
           id="g120"
           transform="translate(57.0186,76.4873)"><path
             d="m 0,0 c 0,-1.105 -0.896,-2.001 -2,-2.001 l -1.725,0 0,-2.881 -2.256,2.881 -8.375,0 c -1.104,0 -2,0.896 -2,2.001 l 0,6 c 0,1.104 0.896,2 2,2 L -2,8 C -0.896,8 0,7.104 0,6 L 0,0 Z"
             style="fill:#008752;fill-opacity:1;fill-rule:nonzero;stroke:none"
             id="path122"
             inkscape:connector-curvature="0" /></g><g
           id="g124"
           transform="translate(32.9814,76.9639)"><path
             d="m 0,0 -1.225,0 c -1.379,0 -2.5,1.121 -2.5,2.5 l 0,6 c 0,1.378 1.121,2.5 2.5,2.5 l 12.356,0 c 1.378,0 2.5,-1.122 2.5,-2.5 l 0,-6 C 13.631,1.121 12.509,0 11.131,0 L 3,0 0,-3.832 0,0 Z"
             style="fill:#0065a4;fill-opacity:1;fill-rule:nonzero;stroke:none"
             id="path126"
             inkscape:connector-curvature="0" /></g><g
           id="g128"
           transform="translate(44.1123,88.4634)"><path
             d="m 0,0 -12.356,0 c -1.654,0 -3,-1.346 -3,-3 l 0,-6 c 0,-1.654 1.346,-3 3,-3 l 0.725,0 0,-1.881 0,-2.9 1.788,2.283 L -7.888,-12 0,-12 c 1.654,0 3,1.346 3,3 l 0,6 C 3,-1.346 1.654,0 0,0 m 0,-1 c 1.104,0 2,-0.896 2,-2 l 0,-6 c 0,-1.104 -0.896,-2 -2,-2 l -8.375,0 -2.256,-2.881 0,2.881 -1.725,0 c -1.104,0 -2,0.896 -2,2 l 0,6 c 0,1.104 0.896,2 2,2 L 0,-1"
             style="fill:#e6e6e7;fill-opacity:1;fill-rule:nonzero;stroke:none"
             id="path130"
             inkscape:connector-curvature="0" /></g><g
           id="g132"
           transform="translate(51.2349,62.8242)"><path
             d="m 0,0 c 0,1.553 3.105,2.328 4.658,2.328 l 4.656,0 c 1.553,0 4.659,-0.775 4.659,-2.328 l 0,-10.869 c 0,-0.776 -2.328,-0.776 -2.328,0 0,0.777 -0.778,8.539 -0.778,8.539 l 0,-21.736 c 0,-1.553 -3.103,-1.553 -3.103,0 0,1.552 -0.778,11.644 -0.778,11.644 0,0 -0.775,-10.092 -0.775,-11.644 0,-1.553 -3.106,-1.553 -3.106,0 l 0,21.736 c 0,0 -0.776,-7.762 -0.776,-8.539 0,-0.776 -2.329,-0.776 -2.329,0 L 0,0 Z"
             style="fill:#008752;fill-opacity:1;fill-rule:nonzero;stroke:none"
             id="path134"
             inkscape:connector-curvature="0" /></g><g
           id="g136"
           transform="translate(61.3267,69.0635)"><path
             d="m 0,0 c 0,-1.929 -1.391,-3.493 -3.105,-3.493 -1.715,0 -3.105,1.564 -3.105,3.493 0,1.929 1.39,3.493 3.105,3.493 C -1.391,3.493 0,1.929 0,0"
             style="fill:#008752;fill-opacity:1;fill-rule:nonzero;stroke:none"
             id="path138"
             inkscape:connector-curvature="0" /></g><g
           id="g140"
           transform="translate(23.77,63.248)"><path
             d="m 0,0 c 0,1.553 3.105,2.328 4.658,2.328 l 4.656,0 c 1.553,0 4.659,-0.775 4.659,-2.328 l 0,-10.869 c 0,-0.776 -2.328,-0.776 -2.328,0 0,0.777 -0.778,8.539 -0.778,8.539 l 0,-21.736 c 0,-1.553 -3.104,-1.553 -3.104,0 0,1.552 -0.777,11.644 -0.777,11.644 0,0 -0.775,-10.092 -0.775,-11.644 0,-1.553 -3.106,-1.553 -3.106,0 l 0,21.736 c 0,0 -0.777,-7.762 -0.777,-8.539 0,-0.776 -2.328,-0.776 -2.328,0 L 0,0 Z"
             style="fill:#0065a4;fill-opacity:1;fill-rule:nonzero;stroke:none"
             id="path142"
             inkscape:connector-curvature="0" /></g><g
           id="g144"
           transform="translate(33.8618,69.4873)"><path
             d="m 0,0 c 0,-1.929 -1.391,-3.493 -3.105,-3.493 -1.715,0 -3.106,1.564 -3.106,3.493 0,1.929 1.391,3.493 3.106,3.493 C -1.391,3.493 0,1.929 0,0"
             style="fill:#0065a4;fill-opacity:1;fill-rule:nonzero;stroke:none"
             id="path146"
             inkscape:connector-curvature="0" /></g></g></g><g
       id="g398"
       transform="translate(252.17844,24.894983)"><path
         d="M 0,0 -4.831,0.015 18.54,34.3 -4.832,68.584 0.01,68.584 23.38,34.3 0,0 Z"
         style="fill:#a5a5a5;fill-opacity:1;fill-rule:nonzero;stroke:none"
         id="path400"
         inkscape:connector-curvature="0" /></g><g
       id="g160"
       transform="translate(88.7544,61.25)"><path
         d="M 0,0 15.399,30.795 30.796,0 0,0 Z"
         style="fill:#a62c17;fill-opacity:1;fill-rule:nonzero;stroke:none"
         id="path162"
         inkscape:connector-curvature="0" /></g><g
       id="g164"
       transform="translate(104.1533,93.1626)"><path
         d="m 0,0 -0.895,-1.789 -14.589,-29.176 -0.724,-1.448 1.618,0 29.178,0 1.618,0 -0.724,1.448 L 0.895,-1.789 0,0 Z m 0,-2.236 14.588,-29.177 -29.178,0 L 0,-2.236 Z"
         style="fill:#e6e6e7;fill-opacity:1;fill-rule:nonzero;stroke:none"
         id="path166"
         inkscape:connector-curvature="0" /></g><g
       id="g168"
       transform="translate(128.2236,47.0313)"><path
         d="m 0,0 c -8.421,0 -15.273,6.851 -15.273,15.271 0,8.423 6.852,15.276 15.273,15.276 8.421,0 15.273,-6.853 15.273,-15.276 C 15.273,6.851 8.421,0 0,0"
         style="fill:#008752;fill-opacity:1;fill-rule:nonzero;stroke:none"
         id="path170"
         inkscape:connector-curvature="0" /></g><g
       id="g172"
       transform="translate(128.2236,78.0786)"><path
         d="m 0,0 c -8.697,0 -15.773,-7.077 -15.773,-15.776 0,-8.696 7.076,-15.771 15.773,-15.771 8.697,0 15.773,7.075 15.773,15.771 C 15.773,-7.077 8.697,0 0,0 m 0,-1 c 8.16,0 14.773,-6.615 14.773,-14.776 0,-8.157 -6.613,-14.771 -14.773,-14.771 -8.159,0 -14.773,6.614 -14.773,14.771 C -14.773,-7.615 -8.159,-1 0,-1"
         style="fill:#e6e6e7;fill-opacity:1;fill-rule:nonzero;stroke:none"
         id="path174"
         inkscape:connector-curvature="0" /></g><path
       d="m 97.352,64.618 27.118,0 0,-27.116 -27.118,0 0,27.116 z"
       style="fill:#0065a4;fill-opacity:1;fill-rule:nonzero;stroke:none"
       id="path176"
       inkscape:connector-curvature="0" /><g
       id="g178"
       transform="translate(124.9692,65.1182)"><path
         d="m 0,0 -1,0 -26.118,0 -1,0 0,-1 0,-26.116 0,-1 1,0 26.118,0 1,0 0,1 L 0,-1 0,0 Z m -1,-27.116 -26.118,0 0,26.116 26.118,0 0,-26.116 z"
         style="fill:#e6e6e7;fill-opacity:1;fill-rule:nonzero;stroke:none"
         id="path180"
         inkscape:connector-curvature="0" /></g><g
       id="g182"
       transform="translate(162.6128,67.3516)"><path
         d="M 0,0 20.524,0"
         style="fill:none;stroke:#000000;stroke-width:1;stroke-linecap:butt;stroke-linejoin:miter;stroke-miterlimit:10;stroke-dasharray:none;stroke-opacity:1"
         id="path184"
         inkscape:connector-curvature="0" /></g><g
       id="g186"
       transform="translate(183.1367,67.3516)"><path
         d="M 0,0 10.262,5.13"
         style="fill:none;stroke:#000000;stroke-width:1;stroke-linecap:butt;stroke-linejoin:miter;stroke-miterlimit:10;stroke-dasharray:none;stroke-opacity:1"
         id="path188"
         inkscape:connector-curvature="0" /></g><g
       id="g190"
       transform="translate(162.6128,67.3516)"><path
         d="m 0,0 10.262,5.13 20.524,0 0,-20.523 -10.262,-5.131 -20.498,0 L 0,0 Z"
         style="fill:none;stroke:#000000;stroke-width:1;stroke-linecap:butt;stroke-linejoin:miter;stroke-miterlimit:10;stroke-dasharray:none;stroke-opacity:1"
         id="path192"
         inkscape:connector-curvature="0" /></g><g
       id="g194"
       transform="translate(183.1367,67.3516)"><path
         d="M 0,0 0,-20.524"
         style="fill:none;stroke:#000000;stroke-width:1;stroke-linecap:butt;stroke-linejoin:miter;stroke-miterlimit:10;stroke-dasharray:none;stroke-opacity:1"
         id="path196"
         inkscape:connector-curvature="0" /></g><g
       id="g198"
       transform="translate(172.875,72.4814)"><path
         d="M 0,0 0,-2"
         style="fill:none;stroke:#000000;stroke-width:1;stroke-linecap:butt;stroke-linejoin:miter;stroke-miterlimit:10;stroke-dasharray:none;stroke-opacity:1"
         id="path200"
         inkscape:connector-curvature="0" /></g><g
       id="g202"
       transform="translate(172.875,67.1182)"><path
         d="M 0,0 0,-11.77"
         style="fill:none;stroke:#000000;stroke-width:1;stroke-linecap:butt;stroke-linejoin:miter;stroke-miterlimit:10;stroke-dasharray:3.363, 3.363;stroke-dashoffset:0;stroke-opacity:1"
         id="path204"
         inkscape:connector-curvature="0" /></g><g
       id="g206"
       transform="translate(172.8745,53.667)"><path
         d="M 0,0 0,-2"
         style="fill:none;stroke:#000000;stroke-width:1;stroke-linecap:butt;stroke-linejoin:miter;stroke-miterlimit:10;stroke-dasharray:none;stroke-opacity:1"
         id="path208"
         inkscape:connector-curvature="0" /></g><g
       id="g210"
       transform="translate(193.3984,51.959)"><path
         d="M 0,0 -2,0"
         style="fill:none;stroke:#000000;stroke-width:1;stroke-linecap:butt;stroke-linejoin:miter;stroke-miterlimit:10;stroke-dasharray:none;stroke-opacity:1"
         id="path212"
         inkscape:connector-curvature="0" /></g><g
       id="g214"
       transform="translate(188.0937,51.959)"><path
         d="M 0,0 -11.567,0"
         style="fill:none;stroke:#000000;stroke-width:1;stroke-linecap:butt;stroke-linejoin:miter;stroke-miterlimit:10;stroke-dasharray:3.305, 3.305;stroke-dashoffset:0;stroke-opacity:1"
         id="path216"
         inkscape:connector-curvature="0" /></g><g
       id="g218"
       transform="translate(174.8745,51.959)"><path
         d="M 0,0 -2,0"
         style="fill:none;stroke:#000000;stroke-width:1;stroke-linecap:butt;stroke-linejoin:miter;stroke-miterlimit:10;stroke-dasharray:none;stroke-opacity:1"
         id="path220"
         inkscape:connector-curvature="0" /></g><g
       id="g222"
       transform="translate(172.8745,51.959)"><path
         d="M 0,0 -1.788,-0.896"
         style="fill:none;stroke:#000000;stroke-width:1;stroke-linecap:butt;stroke-linejoin:miter;stroke-miterlimit:10;stroke-dasharray:none;stroke-opacity:1"
         id="path224"
         inkscape:connector-curvature="0" /></g><g
       id="g226"
       transform="translate(168.8667,49.9492)"><path
         d="M 0,0 -3.33,-1.669"
         style="fill:none;stroke:#000000;stroke-width:1;stroke-linecap:butt;stroke-linejoin:miter;stroke-miterlimit:10;stroke-dasharray:2.483, 2.483;stroke-dashoffset:0;stroke-opacity:1"
         id="path228"
         inkscape:connector-curvature="0" /></g><g
       id="g230"
       transform="translate(164.4268,47.7236)"><path
         d="M 0,0 -1.788,-0.896"
         style="fill:none;stroke:#000000;stroke-width:1;stroke-linecap:butt;stroke-linejoin:miter;stroke-miterlimit:10;stroke-dasharray:none;stroke-opacity:1"
         id="path232"
         inkscape:connector-curvature="0" /></g><g
       id="g234"
       transform="translate(221.9751,80.0576)"><path
         d="m 0,0 -8.131,0 c -1.379,0 -2.5,1.122 -2.5,2.5 l 0,6 c 0,1.379 1.121,2.5 2.5,2.5 l 12.356,0 c 1.378,0 2.5,-1.121 2.5,-2.5 l 0,-6 C 6.725,1.122 5.603,0 4.225,0 L 3,0 3,-3.831 0,0 Z"
         style="fill:#008752;fill-opacity:1;fill-rule:nonzero;stroke:none"
         id="path236"
         inkscape:connector-curvature="0" /></g><g
       id="g238"
       transform="translate(226.1997,91.5581)"><path
         d="m 0,0 -12.356,0 c -1.654,0 -3,-1.346 -3,-3 l 0,-6 c 0,-1.655 1.346,-3 3,-3 l 7.888,0 1.955,-2.498 1.788,-2.282 0,2.899 0,1.881 0.725,0 c 1.654,0 3,1.345 3,3 l 0,6 C 3,-1.346 1.654,0 0,0 m 0,-1 c 1.104,0 2,-0.896 2,-2 l 0,-6 c 0,-1.104 -0.896,-2 -2,-2 l -1.725,0 0,-2.881 -2.256,2.881 -8.375,0 c -1.104,0 -2,0.896 -2,2 l 0,6 c 0,1.104 0.896,2 2,2 L 0,-1"
         style="fill:#e6e6e7;fill-opacity:1;fill-rule:nonzero;stroke:none"
         id="path240"
         inkscape:connector-curvature="0" /></g><g
       id="g242"
       transform="translate(218.3618,65.3496)"><path
         d="m 0,0 c 0,1.557 3.115,2.336 4.672,2.336 l 4.673,0 c 1.558,0 4.673,-0.779 4.673,-2.336 l 0,-10.903 c 0,-0.779 -2.336,-0.779 -2.336,0 0,0.779 -0.779,8.566 -0.779,8.566 l 0,-21.805 c 0,-1.557 -3.115,-1.557 -3.115,0 0,1.557 -0.779,11.682 -0.779,11.682 0,0 -0.779,-10.125 -0.779,-11.682 0,-1.557 -3.115,-1.557 -3.115,0 l 0,21.805 c 0,0 -0.779,-7.787 -0.779,-8.566 0,-0.779 -2.336,-0.779 -2.336,0 L 0,0 Z"
         style="fill:#636466;fill-opacity:1;fill-rule:nonzero;stroke:none"
         id="path244"
         inkscape:connector-curvature="0" /></g><g
       id="g246"
       transform="translate(228.4858,71.6104)"><path
         d="m 0,0 c 0,-1.935 -1.395,-3.505 -3.115,-3.505 -1.72,0 -3.115,1.57 -3.115,3.505 0,1.935 1.395,3.504 3.115,3.504 C -1.395,3.504 0,1.935 0,0"
         style="fill:#636466;fill-opacity:1;fill-rule:nonzero;stroke:none"
         id="path248"
         inkscape:connector-curvature="0" /></g><g
       id="g250"
       transform="translate(234.5732,63.7617)"><path
         d="m 0,0 c 0,1.557 3.115,2.336 4.672,2.336 l 4.673,0 c 1.558,0 4.673,-0.779 4.673,-2.336 l 0,-10.903 c 0,-0.779 -2.337,-0.779 -2.337,0 0,0.779 -0.778,8.566 -0.778,8.566 l 0,-21.805 c 0,-1.557 -3.116,-1.557 -3.116,0 0,1.557 -0.778,11.682 -0.778,11.682 0,0 -0.779,-10.125 -0.779,-11.682 0,-1.557 -3.115,-1.557 -3.115,0 l 0,21.805 c 0,0 -0.779,-7.787 -0.779,-8.566 0,-0.779 -2.336,-0.779 -2.336,0 L 0,0 Z"
         style="fill:#636466;fill-opacity:1;fill-rule:nonzero;stroke:none"
         id="path252"
         inkscape:connector-curvature="0" /></g><g
       id="g254"
       transform="translate(244.6968,70.0225)"><path
         d="m 0,0 c 0,-1.935 -1.395,-3.504 -3.115,-3.504 -1.72,0 -3.115,1.569 -3.115,3.504 0,1.935 1.395,3.504 3.115,3.504 C -1.395,3.504 0,1.935 0,0"
         style="fill:#636466;fill-opacity:1;fill-rule:nonzero;stroke:none"
         id="path256"
         inkscape:connector-curvature="0" /></g><g
       id="g274"
       transform="translate(209.0166,61.4248)"><path
         d="m 0,0 c 0,1.559 3.115,2.337 4.673,2.337 l 4.672,0 c 1.558,0 4.673,-0.778 4.673,-2.337 l 0,-10.902 c 0,-0.779 -2.337,-0.779 -2.337,0 0,0.779 -0.778,8.566 -0.778,8.566 l 0,-21.806 c 0,-1.557 -3.115,-1.557 -3.115,0 0,1.559 -0.779,11.682 -0.779,11.682 0,0 -0.779,-10.123 -0.779,-11.682 0,-1.557 -3.115,-1.557 -3.115,0 l 0,21.806 c 0,0 -0.779,-7.787 -0.779,-8.566 0,-0.779 -2.336,-0.779 -2.336,0 L 0,0 Z"
         style="fill:#808285;fill-opacity:1;fill-rule:nonzero;stroke:none"
         id="path276"
         inkscape:connector-curvature="0" /></g><g
       id="g278"
       transform="translate(219.1406,67.6855)"><path
         d="m 0,0 c 0,-1.935 -1.395,-3.504 -3.115,-3.504 -1.72,0 -3.115,1.569 -3.115,3.504 0,1.935 1.395,3.504 3.115,3.504 C -1.395,3.504 0,1.935 0,0"
         style="fill:#808285;fill-opacity:1;fill-rule:nonzero;stroke:none"
         id="path280"
         inkscape:connector-curvature="0" /></g><g
       id="g282"
       transform="translate(209.8008,75.5459)"><path
         d="m 0,0 -8.131,0 c -1.379,0 -2.5,1.121 -2.5,2.5 l 0,6 c 0,1.378 1.121,2.5 2.5,2.5 l 12.356,0 c 1.378,0 2.5,-1.122 2.5,-2.5 l 0,-6 C 6.725,1.121 5.603,0 4.225,0 L 3,0 3,-3.83 0,0 Z"
         style="fill:#a62c17;fill-opacity:1;fill-rule:nonzero;stroke:none"
         id="path284"
         inkscape:connector-curvature="0" /></g><g
       id="g286"
       transform="translate(214.0254,87.0459)"><path
         d="m 0,0 -12.356,0 c -1.654,0 -3,-1.346 -3,-3 l 0,-6 c 0,-1.654 1.346,-3 3,-3 l 7.888,0 1.956,-2.497 1.787,-2.283 0,2.899 0,1.881 0.725,0 c 1.654,0 3,1.346 3,3 l 0,6 C 3,-1.346 1.654,0 0,0 m 0,-1 c 1.104,0 2,-0.896 2,-2 l 0,-6 c 0,-1.104 -0.896,-2 -2,-2 l -1.725,0 0,-2.881 -2.256,2.881 -8.375,0 c -1.104,0 -2,0.896 -2,2 l 0,6 c 0,1.104 0.896,2 2,2 L 0,-1"
         style="fill:#e6e6e7;fill-opacity:1;fill-rule:nonzero;stroke:none"
         id="path288"
         inkscape:connector-curvature="0" /></g><g
       id="g290"
       transform="translate(242.0801,78.687)"><path
         d="m 0,0 -1.225,0 c -1.379,0 -2.5,1.122 -2.5,2.5 l 0,6 c 0,1.378 1.121,2.5 2.5,2.5 l 12.356,0 c 1.378,0 2.5,-1.122 2.5,-2.5 l 0,-6 C 13.631,1.122 12.509,0 11.131,0 L 3,0 0,-3.831 0,0 Z"
         style="fill:#a62c17;fill-opacity:1;fill-rule:nonzero;stroke:none"
         id="path292"
         inkscape:connector-curvature="0" /></g><g
       id="g294"
       transform="translate(253.2109,90.187)"><path
         d="m 0,0 -12.356,0 c -1.654,0 -3,-1.346 -3,-3 l 0,-6 c 0,-1.654 1.346,-3 3,-3 l 0.725,0 0,-1.881 0,-2.9 1.788,2.283 L -7.888,-12 0,-12 c 1.654,0 3,1.346 3,3 l 0,6 C 3,-1.346 1.654,0 0,0 m 0,-1 c 1.104,0 2,-0.896 2,-2 l 0,-6 c 0,-1.104 -0.896,-2 -2,-2 l -8.375,0 -2.256,-2.881 0,2.881 -1.725,0 c -1.104,0 -2,0.896 -2,2 l 0,6 c 0,1.104 0.896,2 2,2 L 0,-1"
         style="fill:#e6e6e7;fill-opacity:1;fill-rule:nonzero;stroke:none"
         id="path296"
         inkscape:connector-curvature="0" /></g><g
       id="g298"
       transform="translate(254.0371,74.8662)"><path
         d="m 0,0 -1.225,0 c -1.379,0 -2.5,1.121 -2.5,2.5 l 0,6 c 0,1.378 1.121,2.5 2.5,2.5 l 12.356,0 c 1.378,0 2.5,-1.122 2.5,-2.5 l 0,-6 C 13.631,1.121 12.509,0 11.131,0 L 3,0 0,-3.832 0,0 Z"
         style="fill:#008752;fill-opacity:1;fill-rule:nonzero;stroke:none"
         id="path300"
         inkscape:connector-curvature="0" /></g><g
       id="g302"
       transform="translate(265.168,86.3657)"><path
         d="m 0,0 -12.356,0 c -1.654,0 -3,-1.346 -3,-3 l 0,-6 c 0,-1.654 1.346,-3 3,-3 l 0.725,0 0,-1.881 0,-2.9 1.788,2.283 L -7.888,-12 0,-12 c 1.654,0 3,1.346 3,3 l 0,6 C 3,-1.346 1.654,0 0,0 m 0,-1 c 1.104,0 2,-0.896 2,-2 l 0,-6 c 0,-1.105 -0.896,-2 -2,-2 l -8.375,0 -2.256,-2.881 0,2.881 -1.725,0 c -1.104,0 -2,0.895 -2,2 l 0,6 c 0,1.104 0.896,2 2,2 L 0,-1"
         style="fill:#e6e6e7;fill-opacity:1;fill-rule:nonzero;stroke:none"
         id="path304"
         inkscape:connector-curvature="0" /></g><g
       id="g306"
       transform="translate(233.3711,74.8662)"><path
         d="m 0,0 -1.225,0 c -1.379,0 -2.5,1.121 -2.5,2.5 l 0,6 c 0,1.378 1.121,2.5 2.5,2.5 l 12.356,0 c 1.378,0 2.5,-1.122 2.5,-2.5 l 0,-6 C 13.631,1.121 12.509,0 11.131,0 L 3,0 0,-3.832 0,0 Z"
         style="fill:#008752;fill-opacity:1;fill-rule:nonzero;stroke:none"
         id="path308"
         inkscape:connector-curvature="0" /></g><g
       id="g310"
       transform="translate(244.502,86.3657)"><path
         d="m 0,0 -12.356,0 c -1.654,0 -3,-1.346 -3,-3 l 0,-6 c 0,-1.654 1.346,-3 3,-3 l 0.725,0 0,-1.881 0,-2.9 1.788,2.283 L -7.888,-12 0,-12 c 1.654,0 3,1.346 3,3 l 0,6 C 3,-1.346 1.654,0 0,0 m 0,-1 c 1.104,0 2,-0.896 2,-2 l 0,-6 c 0,-1.105 -0.896,-2 -2,-2 l -8.375,0 -2.256,-2.881 0,2.881 -1.725,0 c -1.104,0 -2,0.895 -2,2 l 0,6 c 0,1.104 0.896,2 2,2 L 0,-1"
         style="fill:#e6e6e7;fill-opacity:1;fill-rule:nonzero;stroke:none"
         id="path312"
         inkscape:connector-curvature="0" /></g><g
       id="g314"
       transform="translate(312.02599,52.2061)"><path
         d="m 0,0 0,20.522 -10.262,-5.129 0,-20.525 L 0,0 Z"
         style="fill:#0065a4;fill-opacity:1;fill-rule:nonzero;stroke:none"
         id="path316"
         inkscape:connector-curvature="0" /></g><g
       id="g318"
       transform="translate(301.76429,47.0742)"><path
         d="M 0,0 -20.498,0 -20.524,20.524 0,20.524 0,0 Z"
         style="fill:#009ee0;fill-opacity:1;fill-rule:nonzero;stroke:none"
         id="path320"
         inkscape:connector-curvature="0" /></g><g
       id="g322"
       transform="translate(291.50259,72.7285)"><path
         d="m 0,0 20.523,0 -10.261,-5.13 -20.525,0 L 0,0 Z"
         style="fill:#009ee0;fill-opacity:1;fill-rule:nonzero;stroke:none"
         id="path324"
         inkscape:connector-curvature="0" /></g><g
       id="g326"
       transform="translate(281.23989,67.5986)"><path
         d="M 0,0 20.524,0"
         style="fill:none;stroke:#000000;stroke-width:1;stroke-linecap:butt;stroke-linejoin:miter;stroke-miterlimit:10;stroke-dasharray:none;stroke-opacity:1"
         id="path328"
         inkscape:connector-curvature="0" /></g><g
       id="g330"
       transform="translate(301.76429,67.5986)"><path
         d="M 0,0 10.262,5.13"
         style="fill:none;stroke:#000000;stroke-width:1;stroke-linecap:butt;stroke-linejoin:miter;stroke-miterlimit:10;stroke-dasharray:none;stroke-opacity:1"
         id="path332"
         inkscape:connector-curvature="0" /></g><g
       id="g334"
       transform="translate(281.23989,67.5986)"><path
         d="m 0,0 10.263,5.13 20.523,0 0,-20.523 -10.262,-5.131 -20.498,0 L 0,0 Z"
         style="fill:none;stroke:#000000;stroke-width:1;stroke-linecap:butt;stroke-linejoin:miter;stroke-miterlimit:10;stroke-dasharray:none;stroke-opacity:1"
         id="path336"
         inkscape:connector-curvature="0" /></g><g
       id="g338"
       transform="translate(301.76429,67.5986)"><path
         d="M 0,0 0,-20.524"
         style="fill:none;stroke:#000000;stroke-width:1;stroke-linecap:butt;stroke-linejoin:miter;stroke-miterlimit:10;stroke-dasharray:none;stroke-opacity:1"
         id="path340"
         inkscape:connector-curvature="0" /></g><g
       id="g394"
       transform="translate(132.356,25.3184)"><path
         d="M 0,0 -4.831,0.015 18.54,34.3 -4.832,68.584 0.01,68.584 23.38,34.3 0,0 Z"
         style="fill:#a5a5a5;fill-opacity:1;fill-rule:nonzero;stroke:none"
         id="path396"
         inkscape:connector-curvature="0" /></g><text
       xml:space="preserve"
       style="font-style:normal;font-variant:normal;font-weight:normal;font-stretch:normal;font-size:8px;line-height:125%;font-family:'Liberation Sans';-inkscape-font-specification:'Liberation Sans';letter-spacing:0px;word-spacing:0px;fill:#ffffff;fill-opacity:1;stroke:none;stroke-width:1px;stroke-linecap:butt;stroke-linejoin:miter;stroke-opacity:1"
       x="14.640122"
       y="-29.121502"
       id="text4601"
       sodipodi:linespacing="125%"
       transform="scale(1,-1)"><tspan
         sodipodi:role="line"
         id="tspan4603"
         x="14.640122"
         y="-29.121502">UNDERSTAND</tspan></text>
<text
       transform="scale(1,-1)"
       sodipodi:linespacing="125%"
       id="text4605"
       y="-29.177328"
       x="89.043396"
       style="font-style:normal;font-variant:normal;font-weight:normal;font-stretch:normal;font-size:8px;line-height:125%;font-family:'Liberation Sans';-inkscape-font-specification:'Liberation Sans';letter-spacing:0px;word-spacing:0px;fill:#ffffff;fill-opacity:1;stroke:none;stroke-width:1px;stroke-linecap:butt;stroke-linejoin:miter;stroke-opacity:1"
       xml:space="preserve"><tspan
         y="-29.177328"
         x="89.043396"
         id="tspan4607"
         sodipodi:role="line">DIVERGE</tspan></text>
<text
       xml:space="preserve"
       style="font-style:normal;font-variant:normal;font-weight:normal;font-stretch:normal;font-size:8px;line-height:125%;font-family:'Liberation Sans';-inkscape-font-specification:'Liberation Sans';letter-spacing:0px;word-spacing:0px;fill:#ffffff;fill-opacity:1;stroke:none;stroke-width:1px;stroke-linecap:butt;stroke-linejoin:miter;stroke-opacity:1"
       x="140.26462"
       y="-29.204924"
       id="text4609"
       sodipodi:linespacing="125%"
       transform="scale(1,-1)"><tspan
         sodipodi:role="line"
         id="tspan4611"
         x="140.26462"
         y="-29.204924">PROTOTYPE</tspan></text>
<text
       transform="scale(1,-1)"
       sodipodi:linespacing="125%"
       id="text4613"
       y="-29.243423"
       x="215.5869"
       style="font-style:normal;font-variant:normal;font-weight:normal;font-stretch:normal;font-size:8px;line-height:125%;font-family:'Liberation Sans';-inkscape-font-specification:'Liberation Sans';letter-spacing:0px;word-spacing:0px;fill:#ffffff;fill-opacity:1;stroke:none;stroke-width:1px;stroke-linecap:butt;stroke-linejoin:miter;stroke-opacity:1"
       xml:space="preserve"><tspan
         y="-29.243423"
         x="215.5869"
         id="tspan4615"
         sodipodi:role="line">TEST</tspan></text>
<text
       xml:space="preserve"
       style="font-style:normal;font-variant:normal;font-weight:normal;font-stretch:normal;font-size:8px;line-height:125%;font-family:'Liberation Sans';-inkscape-font-specification:'Liberation Sans';letter-spacing:0px;word-spacing:0px;fill:#ffffff;fill-opacity:1;stroke:none;stroke-width:1px;stroke-linecap:butt;stroke-linejoin:miter;stroke-opacity:1"
       x="271.03482"
       y="-29.180168"
       id="text4617"
       sodipodi:linespacing="125%"
       transform="scale(1,-1)"><tspan
         sodipodi:role="line"
         id="tspan4619"
         x="271.03482"
         y="-29.180168">BUILD</tspan></text>
<g
       transform="translate(225.16917,61.75758)"
       id="g5011"
       style="stroke:#ffffff;stroke-width:0;stroke-miterlimit:4;stroke-dasharray:none"><path
         inkscape:connector-curvature="0"
         id="path5013"
         style="fill:#808285;fill-opacity:1;fill-rule:nonzero;stroke:#ffffff;stroke-width:0;stroke-miterlimit:4;stroke-dasharray:none"
         d="m 0,0 c 0,1.558 3.116,2.336 4.673,2.336 l 4.673,0 c 1.557,0 4.635678,-0.7784234 4.672,-2.336 l 0.162167,-6.9541816 c 0.0308,-0.6272806 -0.601425,-0.9163807 -0.708673,-0.9721841 L 9.5456946,-9.7989581 c -1.170891,-0.5585109 -2.3743402,-0.084675 -2.4295628,0.6923653 -0.037425,0.5266114 4.1952222,2.3306463 4.1757942,2.7274724 C 11.198975,-4.4805687 10.903,-2.336 10.903,-2.336 l 0,-21.807 c 0,-1.557 -3.115,-1.557 -3.115,0 0,1.559 -0.779,11.682 -0.779,11.682 0,0 -0.779,-10.123 -0.779,-11.682 0,-1.557 -3.114,-1.557 -3.114,0 l 0,21.807 c 0,0 -0.78,-7.789 -0.78,-8.567 0,-0.779 -2.336,-0.779 -2.336,0 z"
         sodipodi:nodetypes="ssssccssscsscsscsss" /></g><g
       transform="translate(235.29317,68.01728)"
       id="g5015"><path
         inkscape:connector-curvature="0"
         id="path5017"
         style="fill:#808285;fill-opacity:1;fill-rule:nonzero;stroke:none"
         d="m 0,0 c 0,-1.935 -1.395,-3.504 -3.115,-3.504 -1.72,0 -3.115,1.569 -3.115,3.504 0,1.936 1.395,3.505 3.115,3.505 C -1.395,3.505 0,1.936 0,0" /></g><rect
       style="opacity:1;fill:none;fill-opacity:1;stroke:#000000;stroke-width:0.56;stroke-linecap:round;stroke-linejoin:round;stroke-miterlimit:4;stroke-dasharray:none;stroke-opacity:1"
       id="rect4321"
       width="4.9000001"
       height="5.1503649"
       x="234.08429"
       y="-38.865238"
       transform="matrix(0.99675414,0.08050583,0.08050583,-0.99675414,0,0)"
       rx="1.286104"
       ry="1.286104" /><g
       transform="translate(225.1465,61.752187)"
       id="g4317"
       style="stroke:#ffffff;stroke-width:0;stroke-miterlimit:4;stroke-dasharray:none;stroke-opacity:1"><path
         inkscape:connector-curvature="0"
         id="path4319"
         style="fill:#808285;fill-opacity:1;fill-rule:nonzero;stroke:#ffffff;stroke-width:0;stroke-miterlimit:4;stroke-dasharray:none;stroke-opacity:1"
         d="m 14.15606,-5.1104637 0.02415,-1.8437179 c 0.0308,-0.6272806 -0.601425,-0.9163807 -0.708673,-0.9721841 L 9.5456946,-9.7989581 c -1.170891,-0.5585109 -2.3743402,-0.084675 -2.4295628,0.6923653 -0.037425,0.5266114 4.1952222,2.3306463 4.1757942,2.7274724 0.01218,0.1547445 -0.05346,1.1472668 -0.05346,1.1472668 z"
         sodipodi:nodetypes="cccssccc" /></g><path
       style="fill:#636466;fill-opacity:1;fill-rule:evenodd;stroke:#000000;stroke-width:0;stroke-linecap:butt;stroke-linejoin:miter;stroke-miterlimit:4;stroke-dasharray:none;stroke-opacity:1"
       d="m 236.09285,55.436225 0.01,-0.41158 c 0,0 -2.90815,-1.683224 -3.15564,-1.815806 -0.24749,-0.132583 -0.51312,-0.362392 -0.59265,-0.486136 -0.0795,-0.123744 -0.0442,-0.327037 0.10606,-0.539169 0.15027,-0.212132 1.01647,-0.662913 1.59099,-0.521491 0.57453,0.141421 0.9104,0.313778 1.19325,0.464039 0.28284,0.15026 0.90156,0.446361 0.90156,0.446361 l -0.0442,-0.477298 c 0,0 -0.43752,-0.207712 -0.77339,-0.357972 -0.17623,-0.07884 -0.81184,-0.374978 -1.21446,-0.463762 -0.77019,-0.188569 -1.53191,0.197399 -1.90888,0.584448 -0.37697,0.387049 -0.31894,0.725474 -0.24258,0.984191 0.0764,0.258717 0.24966,0.392198 0.7894,0.702665 0.99878,0.57452 3.34107,1.89151 3.34107,1.89151 z"
       id="path4441"
       inkscape:connector-curvature="0"
       sodipodi:nodetypes="ccszzsccccczzscc" /><g
       style="stroke:#ffffff;stroke-width:0;stroke-miterlimit:4;stroke-dasharray:none"
       id="g4443"
       transform="translate(243.83679,60.555498)"><path
         sodipodi:nodetypes="ssssccssscsscsscsss"
         d="m 0,0 c 0,1.558 3.116,2.336 4.673,2.336 l 4.673,0 c 1.557,0 4.635678,-0.7784234 4.672,-2.336 l 0.162167,-6.9541816 c 0.0308,-0.6272806 -0.601425,-0.9163807 -0.708673,-0.9721841 L 9.5456946,-9.7989581 c -1.170891,-0.5585109 -2.3743402,-0.084675 -2.4295628,0.6923653 -0.037425,0.5266114 4.1952222,2.3306463 4.1757942,2.7274724 C 11.198975,-4.4805687 10.903,-2.336 10.903,-2.336 l 0,-21.807 c 0,-1.557 -3.115,-1.557 -3.115,0 0,1.559 -0.779,11.682 -0.779,11.682 0,0 -0.779,-10.123 -0.779,-11.682 0,-1.557 -3.114,-1.557 -3.114,0 l 0,21.807 c 0,0 -0.78,-7.789 -0.78,-8.567 0,-0.779 -2.336,-0.779 -2.336,0 z"
         style="fill:#808285;fill-opacity:1;fill-rule:nonzero;stroke:#ffffff;stroke-width:0;stroke-miterlimit:4;stroke-dasharray:none"
         id="path4445"
         inkscape:connector-curvature="0" /></g><g
       id="g4447"
       transform="translate(253.96079,66.815198)"><path
         d="m 0,0 c 0,-1.935 -1.395,-3.504 -3.115,-3.504 -1.72,0 -3.115,1.569 -3.115,3.504 0,1.936 1.395,3.505 3.115,3.505 C -1.395,3.505 0,1.936 0,0"
         style="fill:#808285;fill-opacity:1;fill-rule:nonzero;stroke:none"
         id="path4449"
         inkscape:connector-curvature="0" /></g><rect
       ry="1.286104"
       rx="1.286104"
       transform="matrix(0.99675414,0.08050583,0.08050583,-0.99675414,0,0)"
       y="-36.164207"
       x="252.59456"
       height="5.1503649"
       width="4.9000001"
       id="rect4451"
       style="opacity:1;fill:none;fill-opacity:1;stroke:#000000;stroke-width:0.56;stroke-linecap:round;stroke-linejoin:round;stroke-miterlimit:4;stroke-dasharray:none;stroke-opacity:1" /><g
       style="stroke:#ffffff;stroke-width:0;stroke-miterlimit:4;stroke-dasharray:none;stroke-opacity:1"
       id="g4463"
       transform="translate(243.84802,60.471121)"><path
         sodipodi:nodetypes="cccssccc"
         d="m 14.15606,-5.1104637 0.02415,-1.8437179 c 0.0308,-0.6272806 -0.601425,-0.9163807 -0.708673,-0.9721841 L 9.5456946,-9.7989581 c -1.170891,-0.5585109 -2.4538897,-0.022803 -2.5091123,0.7542371 -0.037425,0.5266114 4.2482547,2.3660017 4.2288267,2.7628278 0.01218,0.1547445 -0.02694,1.0500396 -0.02694,1.0500396 z"
         style="fill:#808285;fill-opacity:1;fill-rule:nonzero;stroke:#ffffff;stroke-width:0;stroke-miterlimit:4;stroke-dasharray:none;stroke-opacity:1"
         id="path4465"
         inkscape:connector-curvature="0" /></g><path
       sodipodi:nodetypes="ccszzsccccczzscc"
       inkscape:connector-curvature="0"
       id="path4453"
       d="m 254.74538,54.242093 0.0188,-0.393902 c 0,0 -2.91699,-1.700902 -3.16448,-1.833484 -0.24749,-0.132583 -0.51315,-0.456142 -0.55827,-0.592386 -0.0451,-0.136244 -0.0223,-0.289537 0.12793,-0.501669 0.15027,-0.212132 0.97272,-0.647288 1.54724,-0.505866 0.57453,0.141421 0.86977,0.310653 1.15262,0.460914 0.28284,0.15026 0.89844,0.458861 0.89844,0.458861 l -0.0192,-0.489798 c 0,0 -0.41252,-0.245212 -0.74839,-0.395472 -0.17623,-0.07884 -0.81184,-0.374978 -1.21446,-0.463762 -0.77019,-0.188569 -1.53191,0.197399 -1.90888,0.584448 -0.37697,0.387049 -0.31894,0.725474 -0.24258,0.984191 0.0764,0.258717 0.23091,0.485948 0.77065,0.796415 0.99878,0.57452 3.34107,1.89151 3.34107,1.89151 z"
       style="fill:#e6e6e7;fill-opacity:1;fill-rule:evenodd;stroke:#000000;stroke-width:0;stroke-linecap:butt;stroke-linejoin:miter;stroke-miterlimit:4;stroke-dasharray:none;stroke-opacity:1" /><rect
       ry="1.286104"
       rx="1.286104"
       transform="matrix(0.99675414,0.08050583,0.08050583,-0.99675414,0,0)"
       y="-32.367672"
       x="221.42859"
       height="5.1503649"
       width="4.9000001"
       id="rect4473"
       style="opacity:1;fill:none;fill-opacity:1;stroke:#000000;stroke-width:0.56;stroke-linecap:round;stroke-linejoin:round;stroke-miterlimit:4;stroke-dasharray:none;stroke-opacity:1" /></g></svg>