<?xml version="1.0" standalone="no"?>
<!DOCTYPE svg PUBLIC "-//W3C//DTD SVG 20010904//EN"
 "http://www.w3.org/TR/2001/REC-SVG-20010904/DTD/svg10.dtd">
<svg version="1.0" xmlns="http://www.w3.org/2000/svg"
 width="180.000000pt" height="180.000000pt" viewBox="0 0 180.000000 180.000000"
 preserveAspectRatio="xMidYMid meet">

<g transform="translate(0.000000,180.000000) scale(0.100000,-0.100000)"
fill="#000000" stroke="none">
<path d="M0 900 l0 -900 900 0 900 0 0 900 0 900 -900 0 -900 0 0 -900z m390
700 c0 -27 3 -30 30 -30 25 0 30 -4 30 -25 0 -21 -5 -25 -30 -25 -27 0 -30 -3
-30 -30 0 -25 -4 -30 -25 -30 -20 0 -25 -5 -25 -25 0 -21 -5 -25 -30 -25 -27
0 -30 -3 -30 -30 0 -25 -4 -30 -25 -30 -21 0 -25 -5 -25 -30 l0 -30 -60 0 -60
0 0 170 0 170 140 0 140 0 0 -30z m790 0 c0 -27 3 -30 30 -30 25 0 30 -4 30
-25 0 -20 5 -25 25 -25 21 0 25 -5 25 -30 0 -27 3 -30 30 -30 25 0 30 -4 30
-25 0 -21 5 -25 30 -25 l30 0 0 -60 c0 -57 1 -60 25 -60 l25 0 0 -335 0 -335
30 0 30 0 0 310 0 310 25 0 c21 0 25 -5 25 -30 0 -27 3 -30 30 -30 l30 0 0
-255 0 -255 -30 0 c-25 0 -30 -4 -30 -25 0 -20 -5 -25 -25 -25 -21 0 -25 -5
-25 -30 0 -27 -3 -30 -30 -30 -25 0 -30 -4 -30 -25 0 -20 -5 -25 -25 -25 -21
0 -25 -5 -25 -30 0 -27 -3 -30 -30 -30 -27 0 -30 -3 -30 -30 l0 -30 -170 0
-170 0 0 -25 0 -25 -195 0 -195 0 0 25 c0 24 -3 25 -55 25 -54 0 -55 0 -55 30
0 27 -3 30 -30 30 -27 0 -30 3 -30 30 0 27 -3 30 -30 30 -25 0 -30 4 -30 25 0
20 -5 25 -25 25 l-25 0 0 365 0 365 25 0 c24 0 25 3 25 60 l0 60 30 0 c25 0
30 4 30 25 0 21 5 25 30 25 27 0 30 3 30 30 0 25 4 30 25 30 20 0 25 5 25 25
0 21 5 25 30 25 27 0 30 3 30 30 l0 30 280 0 280 0 0 -30z m510 -140 l0 -170
-60 0 -60 0 0 30 c0 25 -4 30 -25 30 -21 0 -25 5 -25 30 0 27 -3 30 -30 30
-25 0 -30 4 -30 25 0 20 -5 25 -25 25 -21 0 -25 5 -25 30 0 27 -3 30 -30 30
-25 0 -30 4 -30 25 0 21 5 25 30 25 27 0 30 3 30 30 l0 30 140 0 140 0 0 -170z
m-1410 -530 l0 -310 -25 0 c-20 0 -25 5 -25 25 0 21 -5 25 -30 25 l-30 0 0
255 0 255 30 0 c27 0 30 3 30 30 0 25 4 30 25 30 l25 0 0 -310z"/>
<path d="M170 1490 l0 -80 30 0 c25 0 30 4 30 25 0 20 5 25 25 25 21 0 25 5
25 30 0 27 3 30 30 30 25 0 30 4 30 25 0 25 -1 25 -85 25 l-85 0 0 -80z"/>
<path d="M390 1125 l0 -115 200 0 200 0 0 30 c0 25 4 30 25 30 20 0 25 5 25
25 0 24 3 25 60 25 57 0 60 -1 60 -25 0 -20 5 -25 25 -25 21 0 25 -5 25 -30
l0 -30 200 0 200 0 0 115 0 115 -200 0 -200 0 0 -60 c0 -57 -1 -60 -25 -60
-21 0 -25 5 -25 30 l0 30 -60 0 -60 0 0 -30 c0 -25 -4 -30 -25 -30 -24 0 -25
3 -25 60 l0 60 -200 0 -200 0 0 -115z"/>
<path d="M510 785 c0 -52 1 -55 25 -55 21 0 25 -5 25 -30 0 -27 3 -30 30 -30
25 0 30 -4 30 -25 l0 -25 110 0 110 0 0 25 c0 24 3 25 60 25 57 0 60 -1 60
-25 l0 -25 110 0 110 0 0 25 c0 21 5 25 30 25 27 0 30 3 30 30 0 25 4 30 25
30 24 0 25 3 25 55 0 52 -1 55 -25 55 -20 0 -25 -5 -25 -25 0 -24 -3 -25 -60
-25 l-60 0 0 -30 c0 -30 -1 -30 -55 -30 -54 0 -55 0 -55 30 0 25 -4 30 -25 30
-20 0 -25 5 -25 25 0 24 -3 25 -60 25 -57 0 -60 -1 -60 -25 0 -20 -5 -25 -25
-25 -21 0 -25 -5 -25 -30 0 -30 -1 -30 -55 -30 -54 0 -55 0 -55 30 l0 30 -60
0 c-57 0 -60 1 -60 25 0 20 -5 25 -25 25 -24 0 -25 -3 -25 -55z"/>
<path d="M1410 590 c0 -27 -3 -30 -30 -30 -25 0 -30 -4 -30 -25 0 -25 -1 -25
-85 -25 -84 0 -85 0 -85 25 0 25 -1 25 -85 25 -84 0 -85 0 -85 -25 0 -20 -5
-25 -25 -25 -24 0 -25 -3 -25 -60 0 -57 1 -60 25 -60 24 0 25 3 25 60 l0 60
55 0 c54 0 55 0 55 -30 l0 -30 115 0 115 0 0 30 c0 27 3 30 30 30 25 0 30 4
30 25 0 20 5 25 25 25 21 0 25 5 25 30 0 25 -4 30 -25 30 -21 0 -25 -5 -25
-30z"/>
<path d="M1460 1545 c0 -21 5 -25 30 -25 27 0 30 -3 30 -30 0 -25 4 -30 25
-30 20 0 25 -5 25 -25 0 -21 5 -25 30 -25 l30 0 0 80 0 80 -85 0 c-84 0 -85 0
-85 -25z"/>
</g>
</svg>
